<?xml version="1.0" standalone="no"?>
<!DOCTYPE svg PUBLIC "-//W3C//DTD SVG 20010904//EN"
 "http://www.w3.org/TR/2001/REC-SVG-20010904/DTD/svg10.dtd">
<svg version="1.0" xmlns="http://www.w3.org/2000/svg"
 width="640.000000pt" height="640.000000pt" viewBox="0 0 640.000000 640.000000"
 preserveAspectRatio="xMidYMid meet">
<metadata>
Created by potrace 1.14, written by Peter Selinger 2001-2017
</metadata>
<g transform="translate(0.000000,640.000000) scale(0.100000,-0.100000)"
fill="#000000" stroke="none">
<path d="M5349 6205 c-3 -2 -19 -5 -37 -7 -18 -1 -32 -6 -32 -10 0 -4 -6 -8
-13 -8 -14 0 -33 -19 -82 -85 -16 -22 -33 -44 -38 -50 -11 -13 -158 -216 -199
-275 -18 -25 -34 -47 -37 -50 -3 -3 -22 -27 -40 -55 -19 -27 -38 -52 -41 -55
-3 -3 -34 -43 -70 -90 -35 -47 -66 -87 -69 -90 -4 -3 -20 -23 -36 -45 -31 -42
-37 -50 -105 -130 -116 -137 -158 -184 -268 -298 -73 -75 -82 -88 -72 -106 16
-30 36 -18 152 94 56 55 134 127 172 160 38 33 74 65 80 70 6 6 36 30 66 55
30 25 60 49 67 55 7 5 18 15 25 20 7 6 56 45 108 86 52 42 210 162 350 267
255 190 349 271 374 321 11 23 14 76 8 174 -3 41 -49 57 -165 57 -52 0 -96 -2
-98 -5z"/>
<path d="M3467 4253 c-1 -1 -25 -4 -53 -7 -27 -2 -61 -7 -74 -10 -14 -3 -38
-7 -55 -10 -58 -8 -197 -47 -293 -82 -53 -20 -115 -43 -137 -50 -76 -28 -361
-172 -470 -239 -149 -90 -388 -255 -415 -285 -3 -3 -27 -24 -55 -45 -92 -74
-119 -99 -280 -260 -220 -219 -364 -403 -510 -650 -49 -83 -147 -282 -160
-325 -4 -14 -11 -29 -15 -35 -5 -8 -42 -99 -46 -115 0 -3 -3 -12 -7 -20 -7
-18 -38 -110 -41 -125 -2 -5 -5 -17 -9 -25 -6 -19 -37 -135 -42 -161 -2 -12
-6 -28 -9 -37 -3 -9 -8 -30 -11 -47 -2 -16 -7 -41 -10 -55 -70 -347 -64 -713
15 -982 24 -80 88 -218 102 -218 4 0 8 -6 8 -12 0 -7 22 -36 49 -65 36 -38 61
-55 98 -66 55 -16 169 -19 216 -6 28 8 109 73 231 184 12 11 55 49 95 85 41
36 86 76 101 90 15 14 51 47 81 74 30 27 96 87 148 135 51 47 108 99 125 115
376 346 1008 963 1365 1332 164 170 169 180 -104 -226 -211 -315 -254 -384
-349 -575 -66 -132 -115 -265 -135 -366 -28 -136 -14 -302 38 -458 33 -98 110
-261 123 -261 4 0 8 -6 8 -12 0 -20 74 -101 96 -105 64 -13 89 -15 179 -16
101 0 164 6 200 19 57 21 405 263 515 357 8 7 51 42 95 77 44 36 85 69 91 75
10 9 43 37 158 138 120 105 366 343 366 354 -1 15 -29 45 -38 42 -6 -2 -46
-38 -89 -79 -128 -122 -167 -155 -306 -259 -226 -169 -535 -353 -544 -323 -3
6 -11 12 -19 12 -49 0 -174 117 -212 199 -28 61 -37 170 -20 246 5 22 11 52
13 66 2 14 13 57 25 95 12 38 23 76 25 84 4 20 44 128 60 165 7 17 22 53 33
80 11 28 35 82 53 120 18 39 33 72 34 75 2 8 159 318 187 370 83 153 118 216
170 303 32 54 58 103 58 108 0 5 4 9 9 9 5 0 11 8 14 18 7 20 54 101 72 122 6
8 15 22 19 30 8 18 15 29 81 135 27 44 52 82 55 85 3 3 10 14 17 25 23 41 137
220 145 230 5 6 41 60 81 120 39 61 75 115 79 120 5 6 72 101 151 213 167 237
211 299 237 330 11 12 20 24 20 27 0 4 8 15 53 67 17 21 23 59 10 71 -12 12
-44 -17 -278 -249 -127 -126 -250 -245 -274 -265 l-44 -35 -131 131 c-258 257
-453 378 -666 411 -48 7 -299 22 -303 17z m-232 -203 c120 -27 189 -58 316
-144 120 -81 293 -249 464 -449 6 -7 22 -28 37 -49 15 -20 33 -42 41 -50 7 -7
22 -26 35 -42 22 -28 22 -28 2 -55 -10 -14 -34 -43 -52 -63 -18 -20 -49 -56
-68 -80 -19 -23 -42 -49 -50 -58 -8 -9 -42 -47 -75 -85 -33 -39 -64 -75 -70
-81 -14 -15 -156 -173 -180 -200 -21 -23 -174 -190 -233 -253 -283 -305 -829
-850 -1078 -1078 -80 -73 -136 -123 -199 -178 -38 -33 -80 -70 -93 -82 -12
-13 -25 -23 -28 -23 -2 0 -20 -15 -40 -32 -77 -72 -314 -241 -392 -281 l-82
-42 -25 30 c-131 160 -167 627 -80 1065 2 14 7 36 10 50 2 14 7 36 9 50 2 14
16 72 31 130 14 58 28 113 30 122 9 40 90 288 117 358 32 84 31 82 87 203 23
49 41 91 41 93 0 13 153 276 218 374 155 236 376 485 542 610 18 14 39 31 46
38 7 6 15 12 18 12 3 0 28 16 54 35 46 32 199 114 225 119 7 2 23 8 37 13 21
9 59 18 155 37 35 7 178 -2 230 -14z"/>
</g>
</svg>
